<?xml version="1.0" encoding="iso-8859-1"?>
<!-- Generator: Adobe Illustrator 19.0.0, SVG Export Plug-In . SVG Version: 6.00 Build 0)  -->
<svg version="1.1" id="Layer_1" xmlns="http://www.w3.org/2000/svg" xmlns:xlink="http://www.w3.org/1999/xlink" x="0px" y="0px"
	 viewBox="0 0 512 512" style="enable-background:new 0 0 512 512;" xml:space="preserve">
<polygon style="fill:#FE834D;" points="370.854,48.432 370.854,136.995 257.384,136.995 257.384,430.357 290.595,430.357 
	290.595,463.568 224.173,463.568 179.892,277.034 224.173,48.432 "/>
<g>
	<rect x="290.595" y="430.357" style="fill:#FE5F1A;" width="33.211" height="33.211"/>
	<rect x="370.854" y="48.432" style="fill:#FE5F1A;" width="33.211" height="121.773"/>
</g>
<polygon style="fill:#FEA680;" points="224.173,48.432 224.173,463.568 80.259,463.568 80.259,430.357 146.681,430.357 
	146.681,136.995 33.211,136.995 33.211,170.205 0,170.205 0,48.432 "/>
<path style="fill:#81E3E2;" d="M503.697,446.962h-24.908V65.038h24.908c4.586,0,8.303-3.717,8.303-8.303s-3.716-8.303-8.303-8.303
	h-66.422c-4.586,0-8.303,3.717-8.303,8.303s3.716,8.303,8.303,8.303h24.908v381.924h-24.908c-4.586,0-8.303,3.717-8.303,8.303
	c0,4.585,3.716,8.303,8.303,8.303h66.422c4.586,0,8.303-3.717,8.303-8.303C512,450.68,508.284,446.962,503.697,446.962z"/>
<g>
</g>
<g>
</g>
<g>
</g>
<g>
</g>
<g>
</g>
<g>
</g>
<g>
</g>
<g>
</g>
<g>
</g>
<g>
</g>
<g>
</g>
<g>
</g>
<g>
</g>
<g>
</g>
<g>
</g>
</svg>
